<?xml version="1.0" ?><svg viewBox="0 0 64 64" xmlns="http://www.w3.org/2000/svg"><defs><style>.cls-1{fill:#d1e7ff;}.cls-2{fill:#8bc4ff;}.cls-3{fill:#2e58ff;}</style></defs><title/><g id="Bell"><path class="cls-1" d="M37,11H27V7A5,5,0,0,1,37,7Z"/><path class="cls-2" d="M57,50a4,4,0,0,1-4,4H11a4,4,0,0,1,0-8,3,3,0,0,0,3-3V28.47C14,18.53,21.85,10.12,31.78,10A18,18,0,0,1,50,28V43a3,3,0,0,0,3,3A4,4,0,0,1,57,50Z"/><path class="cls-1" d="M40,54a8,8,0,0,1-16,0Z"/><path class="cls-3" d="M53,44a1,1,0,0,1-1-1V28A20,20,0,0,0,39,9.26V7A7,7,0,0,0,25,7V9.3A20.54,20.54,0,0,0,12,28.47V43a1,1,0,0,1-1,1,6,6,0,0,0,0,12H22.2a10,10,0,0,0,19.6,0H53a6,6,0,0,0,0-12ZM29,7a3,3,0,0,1,6,0V8.23a19.46,19.46,0,0,0-6,0ZM26.34,56H37.66A6,6,0,0,1,26.34,56ZM53,52H11a2,2,0,0,1,0-4,5,5,0,0,0,5-5V28.47C16,19.46,23.16,12,32,12A16,16,0,0,1,48,28V43a5,5,0,0,0,5,5,2,2,0,0,1,0,4Z"/></g></svg>