<?xml version="1.0" encoding="iso-8859-1"?>
<!-- Uploaded to: SVG Repo, www.svgrepo.com, Generator: SVG Repo Mixer Tools -->
<!DOCTYPE svg PUBLIC "-//W3C//DTD SVG 1.1//EN" "http://www.w3.org/Graphics/SVG/1.1/DTD/svg11.dtd">
<svg fill="#000000" height="800px" width="800px" version="1.1" id="Capa_1" xmlns="http://www.w3.org/2000/svg" xmlns:xlink="http://www.w3.org/1999/xlink" 
	 viewBox="0 0 492.325 492.325" xml:space="preserve">
<g>
	<path d="M110.547,145.173h26.513c2.763,0,4.994-2.232,4.994-4.986v-30.415h34.302v30.415c0,2.754,2.231,4.986,4.994,4.986h26.529
		c2.761,0,4.994-2.232,4.994-4.986v-30.415h34.301v30.415c0,2.754,2.231,4.986,4.994,4.986h26.513c2.763,0,4.994-2.232,4.994-4.986
		v-26.536c0-2.754-2.231-4.987-4.994-4.987h-30.415V78.249c0-2.754-2.231-4.986-4.994-4.986h-26.513
		c-2.762,0-4.994,2.231-4.994,4.986v30.407h-34.302V78.249c0-2.754-2.231-4.986-4.994-4.986h-26.528
		c-2.762,0-4.996,2.231-4.996,4.986v30.423h-30.398c-2.763,0-4.994,2.233-4.994,4.986v26.529
		C105.553,142.941,107.784,145.173,110.547,145.173z"/>
	<path d="M204.281,310.362h30.8c4.545,0,8.222-3.679,8.222-8.222c0-4.545-3.677-8.222-8.222-8.222h-30.8
		c-4.545,0-8.222,3.677-8.222,8.222C196.059,306.683,199.736,310.362,204.281,310.362z"/>
	<path d="M439.942,264.578l-68.154-5.461l-72.793-68.947c-5.38-5.099-12.414-7.901-19.816-7.901H116.265
		c-8.929,0-17.199,4.022-22.724,11.057l-46.136,58.975l-12.254,5.066C13.793,266.216,0,286.867,0,309.975v54.279
		c0,6.81,5.524,12.333,12.333,12.333h44c3.662,23.984,24.233,42.475,49.22,42.475c24.972,0,45.559-18.491,49.204-42.475h180.564
		c3.644,23.984,24.215,42.475,49.187,42.475c25.003,0,45.573-18.491,49.235-42.475h46.249c6.81,0,12.333-5.523,12.333-12.333
		v-42.925C492.325,291.869,469.313,266.938,439.942,264.578z M290.854,216.427l44.673,42.306h-44.673V216.427z M175.456,206.935
		h98.954v51.797h-98.954V206.935z M105.553,394.396c-13.954,0-25.309-11.353-25.309-25.301c0-13.946,11.355-25.293,25.309-25.293
		c13.94,0,25.293,11.347,25.293,25.293C130.845,383.043,119.493,394.396,105.553,394.396z M159.013,351.921h-6.729
		c-7.05-19.079-25.245-32.785-46.731-32.785c-21.502,0-39.698,13.706-46.747,32.785h-34.14v-41.946
		c0-10.97,5.698-20.683,14.6-26.577h119.747V351.921z M159.013,258.732h-85.32l39.264-50.19c0.786-1.005,2.022-1.607,3.309-1.607
		h42.748V258.732z M354.141,329.711c-7.372,5.701-13.071,13.321-16.349,22.21H175.456v-68.522h178.685V329.711z M384.508,394.396
		c-13.939,0-25.276-11.353-25.276-25.301c0-13.946,11.336-25.293,25.276-25.293c13.971,0,25.324,11.347,25.324,25.293
		C409.832,383.043,398.479,394.396,384.508,394.396z M467.659,351.921H431.27c-7.05-19.079-25.26-32.785-46.762-32.785
		c-1.96,0-3.807,0.353-5.701,0.579v-35.289l59.159,4.737c16.653,1.34,29.693,15.464,29.693,32.165V351.921z"/>
</g>
</svg>